# xmcd
#
# Track frame offsets:
#	150
#	14200
#	28850
#	44830
#	57607
#	71960
#	89392
#	102400
#	115802
#	130292
#
# Disc length: 1952 seconds
#
# Revision: 2
# Processed by: cddbd v1.4PL0 Copyright (c) Steve Scherf et al.
# Submitted via: audiograbber 1.82.02
#
DISCID=9f079e0a
DTITLE=Lori Yates - Can't Stop The Girl
DYEAR=1989
DGENRE=Country
TTITLE0=Promises, Promises
TTITLE1=Scene Of The Crime
TTITLE2=Time After Time
TTITLE3=Heaven's Waiting
TTITLE4=How Much Does It Take
TTITLE5=Can't Stop The Girl
TTITLE6=Blue Side Of Town
TTITLE7=Lonesome Desire
TTITLE8=Lover's Jamboree
TTITLE9=Heart In A Suitcase
EXTD=
EXTT0=
EXTT1=
EXTT2=
EXTT3=
EXTT4=
EXTT5=
EXTT6=
EXTT7=
EXTT8=
EXTT9=
PLAYORDER=
